<svg xmlns="http://www.w3.org/2000/svg" width="419" height="56" fill="none" viewBox="0 0 419 56">
  <mask id="a" width="419" height="56" x="0" y="0" fill="#000" maskUnits="userSpaceOnUse">
    <path fill="#fff" d="M0 0h419v56H0z"/>
    <path d="M1.902 54V1.617h11.391l16.84 26.79c.61.984 1.43 2.378 2.46 4.183a389.246 389.246 0 0 1 3.094 5.52c-.07-2.04-.117-4.032-.14-5.977a410.714 410.714 0 0 1-.035-4.606V1.617h10.793V54H34.879L19.62 29.742c-.773-1.195-1.793-2.86-3.058-4.992a469.917 469.917 0 0 1-4.079-7.242 319.9 319.9 0 0 1 .176 7.312c.047 2.133.07 3.762.07 4.887V54H1.902Zm49.836 0V16.875H62.11V54H51.74Zm5.168-41.8c-1.71 0-3.128-.516-4.253-1.548-1.125-1.054-1.688-2.379-1.688-3.972 0-1.594.563-2.907 1.688-3.938 1.125-1.054 2.543-1.582 4.253-1.582 1.688 0 3.094.528 4.22 1.582 1.124 1.031 1.687 2.344 1.687 3.938 0 1.593-.563 2.918-1.688 3.972C60 11.684 58.594 12.2 56.906 12.2Zm27.407 42.644c-3.727 0-6.985-.809-9.774-2.426-2.789-1.64-4.968-3.914-6.539-6.82-1.547-2.93-2.32-6.305-2.32-10.125 0-3.844.773-7.22 2.32-10.125 1.57-2.93 3.75-5.215 6.54-6.856 2.788-1.64 6.046-2.46 9.773-2.46 3.258 0 6.152.632 8.683 1.898 2.555 1.242 4.594 2.976 6.118 5.203 1.546 2.203 2.425 4.746 2.636 7.629H91.73c-.28-1.899-1.054-3.434-2.32-4.606-1.242-1.172-2.894-1.758-4.957-1.758-2.601 0-4.64.997-6.117 2.989-1.476 1.992-2.215 4.687-2.215 8.086 0 3.375.739 6.058 2.215 8.05 1.477 1.97 3.516 2.954 6.117 2.954 2.086 0 3.727-.586 4.922-1.758 1.196-1.172 1.957-2.73 2.285-4.676h10.09c-.14 2.86-.972 5.402-2.496 7.629-1.523 2.226-3.574 3.984-6.152 5.273-2.555 1.266-5.484 1.899-8.79 1.899Zm38.059 0c-3.75 0-7.043-.809-9.879-2.426-2.813-1.617-5.016-3.867-6.61-6.75-1.57-2.906-2.355-6.305-2.355-10.195 0-3.891.785-7.29 2.355-10.196 1.594-2.906 3.797-5.168 6.61-6.785 2.836-1.64 6.129-2.46 9.879-2.46 3.773 0 7.066.82 9.878 2.46 2.836 1.617 5.04 3.88 6.61 6.785 1.594 2.907 2.39 6.305 2.39 10.196 0 3.867-.796 7.254-2.39 10.16-1.57 2.906-3.774 5.168-6.61 6.785-2.812 1.617-6.105 2.426-9.878 2.426Zm0-8.403c2.531 0 4.57-.96 6.117-2.882 1.547-1.946 2.32-4.641 2.32-8.086 0-3.47-.773-6.176-2.32-8.121-1.547-1.946-3.586-2.918-6.117-2.918-2.508 0-4.536.972-6.082 2.918-1.547 1.945-2.321 4.652-2.321 8.12 0 3.446.774 6.141 2.321 8.087 1.546 1.922 3.574 2.882 6.082 2.882ZM158.376 54V1.617h15.785l8.648 24.399a272.068 272.068 0 0 1 1.828 6.047c.75 2.46 1.442 4.816 2.075 7.066.633-2.25 1.312-4.606 2.039-7.066.75-2.485 1.359-4.5 1.828-6.047l8.543-24.399h15.785V54h-10.582V29.11c0-1.829.035-4.172.105-7.032.094-2.86.176-5.73.247-8.613-.915 3.047-1.793 6-2.637 8.86-.844 2.835-1.547 5.097-2.11 6.784L191.071 54h-8.789l-8.965-24.89a391.258 391.258 0 0 1-2.074-6.47c-.82-2.695-1.676-5.507-2.566-8.437l.21 8.227c.071 2.695.106 4.922.106 6.68V54h-10.617Zm73.355.633c-3.703 0-6.761-.926-9.175-2.778-2.391-1.851-3.586-4.628-3.586-8.332 0-2.789.668-4.968 2.004-6.539 1.336-1.593 3.105-2.754 5.308-3.48 2.203-.727 4.594-1.207 7.172-1.441 3.398-.352 5.777-.704 7.137-1.055 1.359-.352 2.039-1.125 2.039-2.32v-.247c0-1.359-.539-2.472-1.617-3.34-1.078-.867-2.567-1.3-4.465-1.3-1.922 0-3.481.445-4.676 1.336-1.195.89-1.852 2.05-1.969 3.48h-9.738c.234-3.82 1.805-6.855 4.711-9.105 2.906-2.274 6.902-3.41 11.988-3.41 5.086 0 9.024 1.136 11.813 3.41 2.789 2.25 4.183 5.355 4.183 9.316V54h-10.125v-5.238h-.14c-.985 1.804-2.332 3.234-4.043 4.289-1.711 1.054-3.985 1.582-6.821 1.582Zm2.883-7.207c2.485 0 4.453-.657 5.906-1.969 1.454-1.336 2.18-3.012 2.18-5.027v-3.727c-.586.328-1.558.633-2.918.914a137.17 137.17 0 0 1-4.535.774c-1.781.28-3.293.797-4.535 1.547-1.219.726-1.828 1.828-1.828 3.304 0 1.313.515 2.344 1.547 3.094 1.054.727 2.449 1.09 4.183 1.09ZM258.013 54V16.875h9.984v6.328h.106c.679-2.226 1.746-3.879 3.199-4.957 1.453-1.078 3.41-1.617 5.871-1.617.609 0 1.16.012 1.652.035.516.023.985.035 1.407.035v8.824a252.97 252.97 0 0 0-1.864-.105 48.144 48.144 0 0 0-2.601-.07c-2.133 0-3.903.726-5.309 2.18-1.383 1.453-2.074 3.574-2.074 6.363V54h-10.371Zm40.133.914c-4.828 0-8.824-1.102-11.988-3.305-3.141-2.203-4.875-5.297-5.204-9.28h10.196c.187 1.616.867 2.882 2.039 3.796 1.172.914 2.765 1.371 4.781 1.371 1.922 0 3.434-.363 4.535-1.09 1.102-.726 1.653-1.664 1.653-2.812 0-.985-.434-1.77-1.301-2.356-.844-.61-2.016-1.066-3.516-1.37l-6.504-1.266c-7.359-1.407-11.039-5.016-11.039-10.829 0-3.515 1.418-6.34 4.254-8.472 2.836-2.133 6.668-3.2 11.496-3.2 4.805 0 8.672 1.126 11.602 3.376 2.929 2.25 4.441 5.308 4.535 9.175h-9.598c-.023-1.476-.621-2.707-1.793-3.691-1.148-1.008-2.636-1.512-4.465-1.512-1.781 0-3.175.387-4.183 1.16-1.008.75-1.512 1.676-1.512 2.778 0 .96.387 1.746 1.16 2.355.797.61 1.91 1.067 3.34 1.371l7.031 1.371c3.75.727 6.504 1.922 8.262 3.586 1.781 1.64 2.672 3.832 2.672 6.575 0 2.46-.703 4.617-2.109 6.468-1.383 1.828-3.317 3.258-5.801 4.29-2.461 1.007-5.309 1.511-8.543 1.511Zm41.926-38.039v8.121h-7.594V42.54c0 1.266.246 2.145.738 2.637.516.468 1.477.703 2.883.703h3.973V54h-6.047c-4.078 0-7.09-.797-9.035-2.39-1.922-1.594-2.883-4.079-2.883-7.454v-19.16h-6.399v-8.121h6.399V6.75h10.371v10.125h7.594Zm19.742 37.969c-3.75 0-7.043-.809-9.879-2.426-2.812-1.617-5.015-3.867-6.609-6.75-1.571-2.906-2.356-6.305-2.356-10.195 0-3.891.785-7.29 2.356-10.196 1.594-2.906 3.797-5.168 6.609-6.785 2.836-1.64 6.129-2.46 9.879-2.46 3.773 0 7.066.82 9.879 2.46 2.836 1.617 5.039 3.88 6.609 6.785 1.594 2.907 2.391 6.305 2.391 10.196 0 3.867-.797 7.254-2.391 10.16-1.57 2.906-3.773 5.168-6.609 6.785-2.813 1.617-6.106 2.426-9.879 2.426Zm0-8.403c2.531 0 4.57-.96 6.117-2.882 1.547-1.946 2.321-4.641 2.321-8.086 0-3.47-.774-6.176-2.321-8.121-1.547-1.946-3.586-2.918-6.117-2.918-2.508 0-4.535.972-6.082 2.918-1.547 1.945-2.32 4.652-2.32 8.12 0 3.446.773 6.141 2.32 8.087 1.547 1.922 3.574 2.882 6.082 2.882Zm32.821-13.078V54h-10.372V16.875h10.196v5.836c1.265-2.11 2.847-3.738 4.746-4.887 1.898-1.148 4.183-1.722 6.855-1.722 3.938 0 7.09 1.277 9.457 3.832 2.368 2.53 3.551 6.14 3.551 10.828V54h-10.336V32.66c0-2.484-.597-4.37-1.793-5.66-1.195-1.313-2.871-1.969-5.027-1.969-2.133 0-3.879.668-5.238 2.004-1.36 1.336-2.039 3.445-2.039 6.328Z"/>
  </mask>
  <path fill="#fff" fill-opacity=".25" d="M1.902 54V1.617h11.391l16.84 26.79c.61.984 1.43 2.378 2.46 4.183a389.246 389.246 0 0 1 3.094 5.52c-.07-2.04-.117-4.032-.14-5.977a410.714 410.714 0 0 1-.035-4.606V1.617h10.793V54H34.879L19.62 29.742c-.773-1.195-1.793-2.86-3.058-4.992a469.917 469.917 0 0 1-4.079-7.242 319.9 319.9 0 0 1 .176 7.312c.047 2.133.07 3.762.07 4.887V54H1.902Zm49.836 0V16.875H62.11V54H51.74Zm5.168-41.8c-1.71 0-3.128-.516-4.253-1.548-1.125-1.054-1.688-2.379-1.688-3.972 0-1.594.563-2.907 1.688-3.938 1.125-1.054 2.543-1.582 4.253-1.582 1.688 0 3.094.528 4.22 1.582 1.124 1.031 1.687 2.344 1.687 3.938 0 1.593-.563 2.918-1.688 3.972C60 11.684 58.594 12.2 56.906 12.2Zm27.407 42.644c-3.727 0-6.985-.809-9.774-2.426-2.789-1.64-4.968-3.914-6.539-6.82-1.547-2.93-2.32-6.305-2.32-10.125 0-3.844.773-7.22 2.32-10.125 1.57-2.93 3.75-5.215 6.54-6.856 2.788-1.64 6.046-2.46 9.773-2.46 3.258 0 6.152.632 8.683 1.898 2.555 1.242 4.594 2.976 6.118 5.203 1.546 2.203 2.425 4.746 2.636 7.629H91.73c-.28-1.899-1.054-3.434-2.32-4.606-1.242-1.172-2.894-1.758-4.957-1.758-2.601 0-4.64.997-6.117 2.989-1.476 1.992-2.215 4.687-2.215 8.086 0 3.375.739 6.058 2.215 8.05 1.477 1.97 3.516 2.954 6.117 2.954 2.086 0 3.727-.586 4.922-1.758 1.196-1.172 1.957-2.73 2.285-4.676h10.09c-.14 2.86-.972 5.402-2.496 7.629-1.523 2.226-3.574 3.984-6.152 5.273-2.555 1.266-5.484 1.899-8.79 1.899Zm38.059 0c-3.75 0-7.043-.809-9.879-2.426-2.813-1.617-5.016-3.867-6.61-6.75-1.57-2.906-2.355-6.305-2.355-10.195 0-3.891.785-7.29 2.355-10.196 1.594-2.906 3.797-5.168 6.61-6.785 2.836-1.64 6.129-2.46 9.879-2.46 3.773 0 7.066.82 9.878 2.46 2.836 1.617 5.04 3.88 6.61 6.785 1.594 2.907 2.39 6.305 2.39 10.196 0 3.867-.796 7.254-2.39 10.16-1.57 2.906-3.774 5.168-6.61 6.785-2.812 1.617-6.105 2.426-9.878 2.426Zm0-8.403c2.531 0 4.57-.96 6.117-2.882 1.547-1.946 2.32-4.641 2.32-8.086 0-3.47-.773-6.176-2.32-8.121-1.547-1.946-3.586-2.918-6.117-2.918-2.508 0-4.536.972-6.082 2.918-1.547 1.945-2.321 4.652-2.321 8.12 0 3.446.774 6.141 2.321 8.087 1.546 1.922 3.574 2.882 6.082 2.882ZM158.376 54V1.617h15.785l8.648 24.399a272.068 272.068 0 0 1 1.828 6.047c.75 2.46 1.442 4.816 2.075 7.066.633-2.25 1.312-4.606 2.039-7.066.75-2.485 1.359-4.5 1.828-6.047l8.543-24.399h15.785V54h-10.582V29.11c0-1.829.035-4.172.105-7.032.094-2.86.176-5.73.247-8.613-.915 3.047-1.793 6-2.637 8.86-.844 2.835-1.547 5.097-2.11 6.784L191.071 54h-8.789l-8.965-24.89a391.258 391.258 0 0 1-2.074-6.47c-.82-2.695-1.676-5.507-2.566-8.437l.21 8.227c.071 2.695.106 4.922.106 6.68V54h-10.617Zm73.355.633c-3.703 0-6.761-.926-9.175-2.778-2.391-1.851-3.586-4.628-3.586-8.332 0-2.789.668-4.968 2.004-6.539 1.336-1.593 3.105-2.754 5.308-3.48 2.203-.727 4.594-1.207 7.172-1.441 3.398-.352 5.777-.704 7.137-1.055 1.359-.352 2.039-1.125 2.039-2.32v-.247c0-1.359-.539-2.472-1.617-3.34-1.078-.867-2.567-1.3-4.465-1.3-1.922 0-3.481.445-4.676 1.336-1.195.89-1.852 2.05-1.969 3.48h-9.738c.234-3.82 1.805-6.855 4.711-9.105 2.906-2.274 6.902-3.41 11.988-3.41 5.086 0 9.024 1.136 11.813 3.41 2.789 2.25 4.183 5.355 4.183 9.316V54h-10.125v-5.238h-.14c-.985 1.804-2.332 3.234-4.043 4.289-1.711 1.054-3.985 1.582-6.821 1.582Zm2.883-7.207c2.485 0 4.453-.657 5.906-1.969 1.454-1.336 2.18-3.012 2.18-5.027v-3.727c-.586.328-1.558.633-2.918.914a137.17 137.17 0 0 1-4.535.774c-1.781.28-3.293.797-4.535 1.547-1.219.726-1.828 1.828-1.828 3.304 0 1.313.515 2.344 1.547 3.094 1.054.727 2.449 1.09 4.183 1.09ZM258.013 54V16.875h9.984v6.328h.106c.679-2.226 1.746-3.879 3.199-4.957 1.453-1.078 3.41-1.617 5.871-1.617.609 0 1.16.012 1.652.035.516.023.985.035 1.407.035v8.824a252.97 252.97 0 0 0-1.864-.105 48.144 48.144 0 0 0-2.601-.07c-2.133 0-3.903.726-5.309 2.18-1.383 1.453-2.074 3.574-2.074 6.363V54h-10.371Zm40.133.914c-4.828 0-8.824-1.102-11.988-3.305-3.141-2.203-4.875-5.297-5.204-9.28h10.196c.187 1.616.867 2.882 2.039 3.796 1.172.914 2.765 1.371 4.781 1.371 1.922 0 3.434-.363 4.535-1.09 1.102-.726 1.653-1.664 1.653-2.812 0-.985-.434-1.77-1.301-2.356-.844-.61-2.016-1.066-3.516-1.37l-6.504-1.266c-7.359-1.407-11.039-5.016-11.039-10.829 0-3.515 1.418-6.34 4.254-8.472 2.836-2.133 6.668-3.2 11.496-3.2 4.805 0 8.672 1.126 11.602 3.376 2.929 2.25 4.441 5.308 4.535 9.175h-9.598c-.023-1.476-.621-2.707-1.793-3.691-1.148-1.008-2.636-1.512-4.465-1.512-1.781 0-3.175.387-4.183 1.16-1.008.75-1.512 1.676-1.512 2.778 0 .96.387 1.746 1.16 2.355.797.61 1.91 1.067 3.34 1.371l7.031 1.371c3.75.727 6.504 1.922 8.262 3.586 1.781 1.64 2.672 3.832 2.672 6.575 0 2.46-.703 4.617-2.109 6.468-1.383 1.828-3.317 3.258-5.801 4.29-2.461 1.007-5.309 1.511-8.543 1.511Zm41.926-38.039v8.121h-7.594V42.54c0 1.266.246 2.145.738 2.637.516.468 1.477.703 2.883.703h3.973V54h-6.047c-4.078 0-7.09-.797-9.035-2.39-1.922-1.594-2.883-4.079-2.883-7.454v-19.16h-6.399v-8.121h6.399V6.75h10.371v10.125h7.594Zm19.742 37.969c-3.75 0-7.043-.809-9.879-2.426-2.812-1.617-5.015-3.867-6.609-6.75-1.571-2.906-2.356-6.305-2.356-10.195 0-3.891.785-7.29 2.356-10.196 1.594-2.906 3.797-5.168 6.609-6.785 2.836-1.64 6.129-2.46 9.879-2.46 3.773 0 7.066.82 9.879 2.46 2.836 1.617 5.039 3.88 6.609 6.785 1.594 2.907 2.391 6.305 2.391 10.196 0 3.867-.797 7.254-2.391 10.16-1.57 2.906-3.773 5.168-6.609 6.785-2.813 1.617-6.106 2.426-9.879 2.426Zm0-8.403c2.531 0 4.57-.96 6.117-2.882 1.547-1.946 2.321-4.641 2.321-8.086 0-3.47-.774-6.176-2.321-8.121-1.547-1.946-3.586-2.918-6.117-2.918-2.508 0-4.535.972-6.082 2.918-1.547 1.945-2.32 4.652-2.32 8.12 0 3.446.773 6.141 2.32 8.087 1.547 1.922 3.574 2.882 6.082 2.882Zm32.821-13.078V54h-10.372V16.875h10.196v5.836c1.265-2.11 2.847-3.738 4.746-4.887 1.898-1.148 4.183-1.722 6.855-1.722 3.938 0 7.09 1.277 9.457 3.832 2.368 2.53 3.551 6.14 3.551 10.828V54h-10.336V32.66c0-2.484-.597-4.37-1.793-5.66-1.195-1.313-2.871-1.969-5.027-1.969-2.133 0-3.879.668-5.238 2.004-1.36 1.336-2.039 3.445-2.039 6.328Z"/>
  <path fill="#fff" d="M1.902 54h-1v1h1v-1Zm0-52.383v-1h-1v1h1Zm11.391 0 .847-.532-.295-.468h-.552v1Zm16.84 26.79.85-.527-.004-.006-.846.532Zm5.555 9.702-.877.482 1.876-.516-1 .034Zm-.141-5.976-1 .012 1-.012Zm-.035-30.516v-1h-1v1h1Zm10.793 0h1v-1h-1v1Zm0 52.383v1h1v-1h-1Zm-11.426 0-.847.532.295.468h.552v-1ZM19.62 29.742l.847-.532-.007-.011-.84.543Zm-3.058-4.992-.867.5.007.01.86-.51Zm-4.079-7.242.876-.484-1.875.518 1-.034Zm.176 7.312-1 .011v.011l1-.022ZM12.73 54v1h1v-1h-1Zm-9.828 0V1.617h-2V54h2Zm-1-51.383h11.391v-2H1.903v2Zm10.544-.468 16.84 26.79 1.693-1.065L14.14 1.085l-1.693 1.064Zm16.837 26.784c.6.97 1.413 2.352 2.442 4.153l1.737-.992a148.312 148.312 0 0 0-2.479-4.214l-1.7 1.053Zm2.442 4.153c1.029 1.8 2.058 3.635 3.086 5.505l1.753-.964a388.837 388.837 0 0 0-3.102-5.533l-1.737.992Zm4.962 4.989c-.07-2.032-.117-4.017-.14-5.954l-2 .024c.024 1.953.07 3.953.141 5.999l1.999-.07Zm-.14-5.954a411.701 411.701 0 0 1-.035-4.594h-2c0 1.108.011 2.648.035 4.618l2-.024Zm-.035-4.594V1.617h-2v25.91h2Zm-1-24.91h10.793v-2H35.512v2Zm9.793-1V54h2V1.617h-2Zm1 51.383H34.879v2h11.426v-2Zm-10.58.468L20.468 29.21l-1.693 1.065 15.257 24.257 1.693-1.064Zm-15.264-24.27c-.763-1.178-1.775-2.83-3.038-4.958l-1.72 1.02c1.268 2.137 2.295 3.814 3.079 5.025L20.46 29.2Zm-3.032-4.947a469.332 469.332 0 0 1-4.07-7.227l-1.75.967a472.604 472.604 0 0 0 4.087 7.258l1.733-.998Zm-5.944-6.709c.094 2.736.152 5.166.175 7.29l2-.023a320.25 320.25 0 0 0-.176-7.335l-1.999.068Zm.175 7.3c.047 2.131.07 3.751.07 4.865h2a239.6 239.6 0 0 0-.07-4.909l-2 .044Zm.07 4.865V54h2V29.707h-2Zm1 23.293H1.902v2h10.829v-2Zm39.008 1h-1v1h1v-1Zm0-37.125v-1h-1v1h1Zm10.371 0h1v-1h-1v1Zm0 37.125v1h1v-1h-1Zm-9.456-43.348-.684.73.008.008.676-.738Zm0-7.91.675.737.008-.007-.683-.73Zm8.472 0-.684.73.008.007.676-.737Zm0 7.91.676.738.008-.008-.684-.73ZM52.738 54V16.875h-2V54h2Zm-1-36.125H62.11v-2H51.74v2Zm9.371-1V54h2V16.875h-2Zm1 36.125H51.74v2h10.37v-2Zm-5.203-41.8c-1.493 0-2.66-.443-3.578-1.285l-1.351 1.475c1.332 1.22 3 1.81 4.93 1.81v-2Zm-3.57-1.277c-.915-.859-1.371-1.916-1.371-3.243h-2c0 1.86.67 3.451 2.004 4.702l1.367-1.46ZM51.965 6.68c0-1.328.455-2.368 1.363-3.2l-1.351-1.475c-1.342 1.23-2.012 2.815-2.012 4.675h2Zm1.371-3.208c.92-.862 2.083-1.312 3.57-1.312v-2c-1.934 0-3.606.605-4.937 1.853l1.367 1.459Zm3.57-1.312c1.46 0 2.614.448 3.535 1.312l1.368-1.46C60.481.768 58.822.16 56.906.16v2Zm3.543 1.32c.909.832 1.364 1.872 1.364 3.2h2c0-1.86-.67-3.445-2.012-4.675l-1.352 1.474Zm1.364 3.2c0 1.327-.456 2.384-1.372 3.243l1.368 1.459c1.334-1.25 2.004-2.843 2.004-4.702h-2Zm-1.364 3.235c-.92.844-2.077 1.284-3.543 1.284v2c1.91 0 3.565-.59 4.895-1.81l-1.352-1.474Zm14.09 42.503-.507.862.006.003.501-.865ZM68 45.598l-.884.467.005.008.88-.475Zm0-20.25-.881-.473-.001.003.882.47Zm24.996-7.418-.447.894.01.005.437-.9Zm6.118 5.203-.826.565.007.01.819-.575Zm2.636 7.629v1h1.076l-.078-1.073-.998.073Zm-10.02 0-.988.146.126.854h.863v-1Zm-2.32-4.606-.686.728.007.006.68-.734ZM78.337 43.523l-.803.596.003.004.8-.6Zm13.325-3.48v-1h-.846l-.14.834.986.166Zm10.089 0 .999.05.052-1.05h-1.051v1Zm-8.648 12.902.444.896.003-.001-.447-.895Zm-8.79.899c-3.577 0-6.657-.775-9.271-2.291l-1.003 1.73c2.964 1.719 6.4 2.56 10.275 2.56v-2Zm-9.266-2.288c-2.628-1.546-4.68-3.684-6.166-6.434l-1.76.951c1.656 3.063 3.963 5.472 6.912 7.207l1.014-1.724Zm-6.161-6.425c-1.46-2.765-2.205-5.976-2.205-9.658h-2c0 3.958.802 7.497 2.436 10.592l1.769-.934Zm-2.205-9.658c0-3.708.745-6.916 2.203-9.655l-1.765-.94c-1.636 3.073-2.438 6.615-2.438 10.595h2Zm2.202-9.653c1.486-2.773 3.538-4.92 6.164-6.466l-1.014-1.724c-2.951 1.736-5.258 4.159-6.913 7.245l1.763.945Zm6.164-6.466c2.614-1.537 5.691-2.323 9.267-2.323v-2c-3.878 0-7.316.855-10.28 2.6l1.013 1.723Zm9.267-2.323c3.126 0 5.863.607 8.236 1.793l.895-1.789c-2.69-1.345-5.742-2.004-9.131-2.004v2Zm8.246 1.798c2.407 1.17 4.31 2.793 5.73 4.869l1.65-1.13c-1.627-2.378-3.803-4.224-6.505-5.538l-.875 1.799Zm5.736 4.878c1.436 2.045 2.259 4.411 2.458 7.128l1.995-.146c-.223-3.05-1.158-5.769-2.816-8.13l-1.637 1.148Zm3.455 6.055H91.73v2h10.02v-2Zm-9.03.853c-.31-2.097-1.178-3.848-2.63-5.192L88.73 26.89c1.08 1 1.759 2.318 2.01 4.018l1.979-.293Zm-2.623-5.186c-1.465-1.382-3.382-2.03-5.644-2.03v2c1.864 0 3.252.523 4.271 1.485l1.373-1.455Zm-5.644-2.03c-2.9 0-5.244 1.131-6.92 3.392l1.607 1.191c1.277-1.723 3.01-2.584 5.313-2.584v-2Zm-6.92 3.392c-1.644 2.218-2.412 5.147-2.412 8.682h2c0-3.262.71-5.724 2.019-7.49l-1.607-1.192Zm-2.412 8.682c0 3.513.769 6.429 2.412 8.646l1.607-1.191c-1.31-1.767-2.019-4.219-2.019-7.455h-2Zm2.415 8.65c1.678 2.237 4.022 3.354 6.917 3.354v-2c-2.307 0-4.041-.853-5.317-2.554l-1.6 1.2Zm6.917 3.354c2.28 0 4.197-.646 5.622-2.044l-1.4-1.428c-.965.946-2.33 1.472-4.222 1.472v2Zm5.622-2.044c1.372-1.345 2.215-3.108 2.572-5.224l-1.973-.332c-.3 1.775-.98 3.129-1.999 4.128l1.4 1.428Zm1.585-4.39h10.09v-2H91.66v2Zm9.092-1.05c-.133 2.687-.91 5.05-2.323 7.114l1.651 1.13c1.634-2.389 2.52-5.113 2.669-8.145l-1.997-.098Zm-2.323 7.114c-1.421 2.077-3.338 3.726-5.774 4.944l.894 1.789c2.72-1.36 4.905-3.227 6.531-5.603l-1.651-1.13Zm-5.771 4.942c-2.396 1.187-5.17 1.795-8.345 1.795v2c3.434 0 6.52-.659 9.233-2.003l-.888-1.792Zm19.835.369-.499.867.003.002.496-.869Zm-6.61-6.75-.88.475.005.009.875-.484Zm0-20.39-.877-.481-.003.005.88.475Zm6.61-6.786.498.867.002-.001-.5-.866Zm19.757 0-.503.864.008.005.495-.869Zm6.61 6.785-.88.476.003.005.877-.48Zm0 20.356-.877-.481-.003.005.88.476Zm-6.61 6.785-.495-.869-.003.002.498.867Zm-3.761-8.86.779.628.003-.005-.782-.622Zm-12.199 0-.783.623.004.005.779-.627Zm6.082 10.286c-3.603 0-6.72-.776-9.384-2.295l-.991 1.738c3.008 1.715 6.477 2.557 10.375 2.557v-2Zm-9.381-2.293c-2.652-1.525-4.726-3.641-6.233-6.367l-1.75.968c1.681 3.04 4.013 5.423 6.986 7.133l.997-1.734Zm-6.228-6.358c-1.478-2.737-2.235-5.966-2.235-9.72h-2c0 4.027.813 7.594 2.475 10.67l1.76-.95Zm-2.235-9.72c0-3.755.757-6.984 2.235-9.72l-1.76-.951c-1.662 3.076-2.475 6.644-2.475 10.67h2Zm2.232-9.715c1.508-2.749 3.581-4.875 6.231-6.399l-.997-1.734c-2.975 1.711-5.308 4.108-6.988 7.172l1.754.961Zm6.233-6.4c2.663-1.54 5.779-2.327 9.379-2.327v-2c-3.9 0-7.371.855-10.38 2.596l1.001 1.73Zm9.379-2.327c3.624 0 6.738.787 9.375 2.325l1.007-1.728c-2.988-1.743-6.46-2.597-10.382-2.597v2Zm9.383 2.33c2.672 1.523 4.742 3.648 6.225 6.392l1.76-.951c-1.658-3.069-3.994-5.468-6.994-7.178l-.991 1.737Zm6.228 6.397c1.5 2.735 2.267 5.963 2.267 9.715h2c0-4.03-.826-7.6-2.513-10.676l-1.754.961Zm2.267 9.715c0 3.727-.767 6.943-2.267 9.679l1.754.962c1.687-3.077 2.513-6.634 2.513-10.641h-2Zm-2.27 9.684c-1.483 2.744-3.553 4.869-6.225 6.392l.991 1.738c3-1.711 5.336-4.11 6.994-7.179l-1.76-.95Zm-6.228 6.394c-2.638 1.517-5.753 2.293-9.38 2.293v2c3.919 0 7.39-.841 10.377-2.56l-.997-1.733Zm-9.38-4.11c2.824 0 5.153-1.09 6.896-3.255l-1.558-1.254c-1.352 1.679-3.101 2.51-5.338 2.51v2Zm6.899-3.26c1.734-2.18 2.538-5.123 2.538-8.708h-2c0 3.305-.742 5.752-2.103 7.463l1.565 1.245Zm2.538-8.708c0-3.607-.804-6.563-2.538-8.744l-1.565 1.245c1.36 1.71 2.103 4.168 2.103 7.499h2Zm-2.538-8.744c-1.74-2.189-4.07-3.295-6.899-3.295v2c2.233 0 3.981.838 5.334 2.54l1.565-1.245Zm-6.899-3.295c-2.81 0-5.127 1.109-6.865 3.295l1.565 1.245c1.355-1.704 3.093-2.54 5.3-2.54v-2Zm-6.865 3.295c-1.734 2.18-2.538 5.137-2.538 8.744h2c0-3.331.743-5.79 2.103-7.499l-1.565-1.245Zm-2.538 8.744c0 3.585.805 6.528 2.538 8.708l1.565-1.245c-1.36-1.71-2.103-4.158-2.103-7.463h-2Zm2.542 8.713c1.74 2.162 4.056 3.255 6.861 3.255v-2c-2.211 0-3.95-.828-5.303-2.51l-1.558 1.255ZM158.376 54h-1v1h1v-1Zm0-52.383v-1h-1v1h1Zm15.785 0 .942-.334-.236-.666h-.706v1Zm8.648 24.399.953-.304-.005-.015-.005-.015-.943.334Zm1.828 6.047-.959.28.003.011.956-.291Zm2.075 7.066-.963.27.963 3.423.962-3.422-.962-.271Zm2.039-7.066-.958-.29-.001.006.959.284Zm1.828-6.047-.944-.33-.007.02-.006.02.957.29Zm8.543-24.399v-1h-.71l-.234.67.944.33Zm15.785 0h1v-1h-1v1Zm0 52.383v1h1v-1h-1Zm-10.582 0h-1v1h1v-1Zm.105-31.922-.999-.033v.008l.999.025Zm.247-8.613.999.024-1.957-.312.958.288Zm-2.637 8.86.958.284.001-.002-.959-.283Zm-2.11 6.784.943.336.003-.01.003-.01-.949-.316ZM191.071 54v1h.706l.236-.665-.942-.335Zm-8.789 0-.941.339.238.661h.703v-1Zm-8.965-24.89-.948.316.003.011.004.011.941-.339Zm-2.074-6.47-.957.292.003.007.954-.298Zm-2.566-8.437.956-.29-1.956.316 1-.026Zm.21 8.227-.999.026.999-.026Zm.106 31.57v1h1v-1h-1Zm-9.617 0V1.617h-2V54h2Zm-1-51.383h15.785v-2h-15.785v2Zm14.842-.666 8.649 24.399 1.885-.669-8.649-24.398-1.885.668Zm8.638 24.368a280.097 280.097 0 0 1 1.822 6.024l1.919-.561a274.321 274.321 0 0 0-1.835-6.07l-1.906.607Zm1.825 6.035a342.32 342.32 0 0 1 2.068 7.046l1.925-.542a341.204 341.204 0 0 0-2.08-7.087l-1.913.583Zm3.993 7.046c.632-2.246 1.31-4.597 2.036-7.054l-1.918-.567a564.18 564.18 0 0 0-2.043 7.08l1.925.54Zm2.034-7.048c.75-2.485 1.359-4.5 1.828-6.046l-1.914-.58a5692.3 5692.3 0 0 0-1.829 6.047l1.915.579Zm1.815-6.006 8.543-24.398-1.888-.661-8.543 24.398 1.888.661Zm7.599-23.729h15.785v-2h-15.785v2Zm14.785-1V54h2V1.617h-2Zm1 51.383h-10.582v2h10.582v-2Zm-9.582 1V29.11h-2V54h2Zm0-24.89c0-1.817.035-4.152.105-7.007l-1.999-.05a294.956 294.956 0 0 0-.106 7.056h2Zm.105-7c.094-2.861.176-5.735.246-8.62l-1.999-.05c-.07 2.88-.152 5.749-.246 8.605l1.999.066Zm-1.711-8.932c-.915 3.048-1.794 6.002-2.638 8.863l1.918.566c.843-2.858 1.722-5.81 2.635-8.855l-1.915-.575Zm-2.638 8.861c-.842 2.831-1.542 5.081-2.099 6.754l1.897.633c.568-1.703 1.274-3.976 2.119-6.817l-1.917-.57Zm-2.093 6.735-8.859 24.89 1.884.671 8.86-24.89-1.885-.67ZM191.071 53h-8.789v2h8.789v-2Zm-7.848.661-8.965-24.89-1.882.677 8.965 24.89 1.882-.677Zm-8.957-24.868a389.377 389.377 0 0 1-2.069-6.451l-1.908.597a383.473 383.473 0 0 0 2.08 6.487l1.897-.633ZM172.2 22.35l-2.567-8.437-1.913.582 2.566 8.438 1.914-.582Zm-4.523-8.12.211 8.227 1.999-.052-.211-8.226-1.999.05Zm.211 8.227c.07 2.69.105 4.907.105 6.653h2c0-1.77-.035-4.005-.106-6.705l-1.999.052Zm.105 6.653V54h2V29.11h-2Zm1 23.891h-10.617v2h10.617v-2Zm53.563-1.145-.613.791.004.003.609-.794Zm-1.582-14.87.761.647.005-.005-.766-.643Zm12.48-4.922.091.995h.012l-.103-.995Zm-3.551-3.446v1h.922l.075-.918-.997-.082Zm-9.738 0-.998-.061-.065 1.061h1.063v-1Zm4.711-9.105.612.79.004-.003-.616-.787Zm23.801 0-.632.775.004.003.628-.778ZM252.86 54v1h1v-1h-1Zm-10.125 0h-1v1h1v-1Zm0-5.238h1v-1h-1v1Zm-.14 0v-1h-.594l-.284.52.878.48Zm-2.075-3.305.671.742.006-.006-.677-.736Zm2.18-8.754h1v-1.706l-1.488.834.488.872Zm-2.918.914.187.983.008-.002.008-.002-.203-.979Zm-4.535.774-.153-.989h-.003l.156.989Zm-4.535 1.547.512.858.005-.002-.517-.856Zm-.281 6.398-.589.809.011.007.01.007.568-.823Zm1.3 7.297c-3.532 0-6.363-.88-8.567-2.571l-1.217 1.587c2.624 2.012 5.91 2.984 9.784 2.984v-2Zm-8.563-2.568c-2.091-1.62-3.198-4.07-3.198-7.542h-2c0 3.936 1.283 7.04 3.973 9.123l1.225-1.581Zm-3.198-7.542c0-2.635.63-4.556 1.765-5.89l-1.523-1.297c-1.537 1.807-2.242 4.245-2.242 7.187h2Zm1.77-5.896c1.203-1.435 2.808-2.498 4.855-3.173l-.626-1.9c-2.359.778-4.293 2.036-5.762 3.788l1.533 1.285Zm4.855-3.173c2.124-.7 4.439-1.167 6.95-1.396l-.181-1.991c-2.646.24-5.112.734-7.395 1.487l.626 1.9Zm6.962-1.397c3.398-.351 5.844-.709 7.284-1.081l-.501-1.936c-1.278.33-3.59.676-6.989 1.028l.206 1.99Zm7.284-1.081c.805-.208 1.518-.569 2.03-1.152.526-.598.759-1.337.759-2.137h-2c0 .397-.107.642-.261.817-.167.19-.474.392-1.029.536l.501 1.936Zm2.789-3.288v-.247h-2v.247h2Zm0-.247c0-1.668-.681-3.066-1.991-4.119l-1.253 1.559c.847.681 1.244 1.51 1.244 2.56h2Zm-1.991-4.119c-1.311-1.055-3.049-1.521-5.091-1.521v2c1.754 0 2.993.4 3.838 1.08l1.253-1.559Zm-5.091-1.521c-2.075 0-3.861.482-5.273 1.534l1.195 1.604c.978-.73 2.309-1.138 4.078-1.138v-2Zm-5.273 1.534c-1.416 1.054-2.227 2.472-2.368 4.2l1.993.164c.093-1.131.594-2.034 1.57-2.76l-1.195-1.604Zm-1.372 3.282h-9.738v2h9.738v-2Zm-8.74 1.061c.218-3.546 1.657-6.31 4.325-8.376l-1.224-1.581c-3.145 2.434-4.846 5.74-5.097 9.835l1.996.122Zm4.329-8.379c2.674-2.092 6.426-3.197 11.372-3.197v-2c-5.226 0-9.466 1.167-12.604 3.622l1.232 1.575Zm11.372-3.197c4.949 0 8.631 1.107 11.181 3.185l1.264-1.55c-3.029-2.47-7.222-3.635-12.445-3.635v2Zm11.185 3.188c2.527 2.039 3.811 4.843 3.811 8.538h2c0-4.227-1.504-7.633-4.555-10.095l-1.256 1.557Zm3.811 8.538V54h2V28.828h-2Zm1 24.172h-10.125v2h10.125v-2Zm-9.125 1v-5.238h-2V54h2Zm-1-6.238h-.14v2h.14v-2Zm-1.018.52c-.903 1.657-2.131 2.956-3.69 3.918l1.049 1.702c1.863-1.148 3.331-2.708 4.397-4.661l-1.756-.958Zm-3.69 3.918c-1.501.925-3.572 1.433-6.296 1.433v2c2.949 0 5.425-.547 7.345-1.731l-1.049-1.703Zm-3.413-3.774c2.663 0 4.894-.707 6.577-2.227l-1.341-1.484c-1.224 1.105-2.93 1.71-5.236 1.71v2Zm6.583-2.233c1.664-1.53 2.503-3.475 2.503-5.763h-2c0 1.742-.614 3.149-1.856 4.29l1.353 1.473Zm2.503-5.763v-3.727h-2v3.727h2Zm-1.488-4.6c-.445.25-1.29.53-2.632.808l.405 1.958c1.376-.284 2.476-.613 3.204-1.02l-.977-1.745Zm-2.616.805a136.37 136.37 0 0 1-4.502.767l.306 1.977c1.673-.26 3.196-.519 4.569-.78l-.373-1.964Zm-4.505.768c-1.879.297-3.52.848-4.896 1.678l1.034 1.713c1.108-.67 2.49-1.15 4.174-1.416l-.312-1.975Zm-4.891 1.676c-1.536.915-2.316 2.352-2.316 4.163h2c0-1.142.439-1.908 1.34-2.446L230.2 39.08Zm-2.316 4.163c0 1.622.66 2.958 1.958 3.903l1.177-1.618c-.764-.555-1.135-1.281-1.135-2.285h-2Zm1.979 3.917c1.272.876 2.884 1.267 4.751 1.267v-2c-1.602 0-2.778-.336-3.616-.914l-1.135 1.647ZM258.013 54h-1v1h1v-1Zm0-37.125v-1h-1v1h1Zm9.984 0h1v-1h-1v1Zm0 6.328h-1v1h1v-1Zm.106 0v1h.74l.216-.708-.956-.292Zm10.722-6.539-.047.999h.002l.045-.999Zm1.407.035h1v-1h-1v1Zm0 8.824-.063.998 1.063.067v-1.065h-1Zm-9.774 2.004-.718-.695-.006.006.724.69ZM268.384 54v1h1v-1h-1Zm-9.371 0V16.875h-2V54h2Zm-1-36.125h9.984v-2h-9.984v2Zm8.984-1v6.328h2v-6.328h-2Zm1 7.328h.106v-2h-.106v2Zm1.062-.708c.635-2.08 1.601-3.527 2.839-4.446l-1.192-1.606c-1.668 1.238-2.836 3.096-3.56 5.468l1.913.584Zm2.839-4.446c1.228-.911 2.953-1.42 5.275-1.42v-2c-2.599 0-4.789.57-6.467 1.814l1.192 1.606Zm5.275-1.42c.597 0 1.132.011 1.605.034l.095-1.998a36.064 36.064 0 0 0-1.7-.036v2Zm1.607.034a32.16 32.16 0 0 0 1.452.036v-2c-.404 0-.858-.011-1.361-.034l-.091 1.998Zm.452-.964v8.824h2V16.7h-2Zm1.062 7.826c-.38-.023-1.004-.059-1.872-.106l-.108 1.997c.867.047 1.485.082 1.855.105l.125-1.996Zm-1.872-.106a49.22 49.22 0 0 0-2.655-.071v2c.849 0 1.698.023 2.547.069l.108-1.998Zm-2.655-.071c-2.387 0-4.422.825-6.027 2.484l1.437 1.39c1.206-1.246 2.711-1.874 4.59-1.874v-2Zm-6.033 2.49c-1.619 1.701-2.35 4.108-2.35 7.053h2c0-2.634.652-4.47 1.799-5.674l-1.449-1.379Zm-2.35 7.053V54h2V33.89h-2Zm1 19.109h-10.371v2h10.371v-2Zm17.774-1.39-.575.818.003.002.572-.82Zm-5.204-9.282v-1h-1.085l.089 1.082.996-.082Zm10.196 0 .993-.115-.103-.885h-.89v1Zm11.707-1.09-.586.811.013.01.013.008.56-.829Zm-3.516-1.37.199-.98-.008-.002-.191.981Zm-6.504-1.266.191-.982h-.003l-.188.982Zm20.848-9.95v1h1.024l-.024-1.024-1 .024Zm-9.598 0-1 .016.016.984h.984v-1Zm-1.793-3.691-.659.752.008.007.008.007.643-.766Zm-8.648-.352.597.803.006-.005.006-.004-.609-.794Zm-.352 5.133-.619.786.006.004.006.005.607-.795Zm3.34 1.371-.208.978.008.002.009.002.191-.982Zm7.031 1.371-.191.982h.001l.19-.982Zm8.262 3.586-.688.727.011.009.677-.736Zm.563 13.043-.797-.605-.001.002.798.603Zm-5.801 4.29.379.925.004-.002-.383-.924Zm-8.543.511c-4.676 0-8.459-1.065-11.417-3.125l-1.143 1.641c3.37 2.346 7.579 3.484 12.56 3.484v-2Zm-11.414-3.123c-2.886-2.025-4.476-4.842-4.781-8.545l-1.993.164c.351 4.266 2.23 7.636 5.625 10.018l1.149-1.637Zm-5.778-7.463h10.196v-2h-10.196v2Zm9.202-.885c.215 1.855 1.013 3.375 2.418 4.47l1.23-1.576c-.94-.733-1.501-1.745-1.661-3.124l-1.987.23Zm2.418 4.47c1.401 1.093 3.236 1.583 5.396 1.583v-2c-1.872 0-3.223-.424-4.166-1.16l-1.23 1.578Zm5.396 1.583c2.033 0 3.762-.382 5.086-1.255l-1.101-1.67c-.88.58-2.174.925-3.985.925v2Zm5.086-1.255c1.333-.88 2.102-2.108 2.102-3.647h-2c0 .758-.334 1.404-1.203 1.977l1.101 1.67Zm2.102-3.647c0-1.341-.62-2.426-1.741-3.184l-1.12 1.657c.612.414.861.899.861 1.527h2Zm-1.716-3.166c-1-.723-2.323-1.22-3.902-1.54l-.398 1.96c1.421.288 2.442.705 3.129 1.201l1.171-1.621Zm-3.91-1.542-6.504-1.266-.382 1.963 6.504 1.266.382-1.963Zm-6.507-1.267c-3.57-.682-6.118-1.876-7.767-3.493-1.623-1.592-2.46-3.677-2.46-6.353h-2c0 3.138 1.003 5.763 3.06 7.78 2.031 1.993 5.002 3.307 8.792 4.03l.375-1.964Zm-10.227-9.846c0-3.197 1.268-5.727 3.855-7.673l-1.202-1.598c-3.084 2.32-4.653 5.438-4.653 9.271h2Zm3.855-7.673c2.61-1.963 6.207-2.998 10.895-2.998v-2c-4.968 0-9.035 1.097-12.097 3.4l1.202 1.598Zm10.895-2.998c4.651 0 8.284 1.087 10.993 3.168l1.218-1.587c-3.151-2.42-7.252-3.581-12.211-3.581v2Zm10.993 3.168c2.677 2.056 4.057 4.825 4.144 8.407l2-.049c-.101-4.153-1.744-7.5-4.926-9.945l-1.218 1.587Zm5.144 7.382h-9.598v2h9.598v-2Zm-8.598.985c-.028-1.779-.765-3.279-2.15-4.442l-1.286 1.532c.959.805 1.418 1.766 1.436 2.941l2-.031Zm-2.133-4.428c-1.365-1.198-3.104-1.76-5.125-1.76v2c1.636 0 2.874.446 3.806 1.264l1.319-1.504Zm-5.125-1.76c-1.914 0-3.551.415-4.792 1.367l1.218 1.587c.775-.595 1.927-.954 3.574-.954v-2Zm-4.78 1.358c-1.221.909-1.915 2.115-1.915 3.58h2c0-.738.314-1.384 1.109-1.975l-1.194-1.605Zm-1.915 3.58c0 1.276.534 2.347 1.541 3.14l1.238-1.57c-.54-.425-.779-.924-.779-1.57h-2Zm1.553 3.15c.956.73 2.225 1.232 3.739 1.554l.416-1.956c-1.345-.287-2.302-.7-2.94-1.187l-1.215 1.588Zm3.756 1.558 7.031 1.37.383-1.962-7.032-1.371-.382 1.963Zm7.032 1.371c3.662.71 6.203 1.852 7.765 3.33l1.375-1.452c-1.955-1.85-4.922-3.098-8.759-3.841l-.381 1.963Zm7.775 3.34c1.547 1.425 2.349 3.335 2.349 5.839h2c0-2.981-.979-5.454-2.994-7.31l-1.355 1.47Zm2.349 5.839c0 2.256-.64 4.196-1.906 5.863l1.593 1.21c1.546-2.036 2.313-4.408 2.313-7.074h-2Zm-1.907 5.865c-1.258 1.664-3.038 2.994-5.387 3.969l.767 1.847c2.62-1.087 4.708-2.617 6.215-4.61l-1.595-1.206Zm-5.382 3.967c-2.318.95-5.032 1.437-8.164 1.437v2c3.337 0 6.318-.52 8.922-1.586l-.758-1.851Zm33.762-35.602h1v-1h-1v1Zm0 8.121v1h1v-1h-1Zm-7.594 0v-1h-1v1h1Zm.738 20.18-.707.707.017.017.018.016.672-.74Zm6.856.703h1v-1h-1v1Zm0 8.121v1h1v-1h-1Zm-15.082-2.39-.639.77.005.003.634-.774Zm-2.883-26.614h1v-1h-1v1Zm-6.399 0h-1v1h1v-1Zm0-8.121v-1h-1v1h1Zm6.399 0v1h1v-1h-1Zm0-10.125v-1h-1v1h1Zm10.371 0h1v-1h-1v1Zm0 10.125h-1v1h1v-1Zm6.594 0v8.121h2v-8.121h-2Zm1 7.121h-7.594v2h7.594v-2Zm-8.594 1V42.54h2V24.996h-2Zm0 17.543c0 1.334.247 2.56 1.031 3.344l1.414-1.414c-.2-.2-.445-.732-.445-1.93h-2Zm1.066 3.377c.813.74 2.116.963 3.555.963v-2c-1.373 0-1.992-.245-2.21-.443l-1.345 1.48Zm3.555.963h3.973v-2h-3.973v2Zm2.973-1V54h2v-8.121h-2Zm1 7.121h-6.047v2h6.047v-2Zm-6.047 0c-3.981 0-6.717-.784-8.402-2.164l-1.267 1.547c2.206 1.807 5.493 2.617 9.669 2.617v-2Zm-8.397-2.16c-1.619-1.343-2.521-3.495-2.521-6.684h-2c0 3.562 1.02 6.378 3.244 8.223l1.277-1.54Zm-2.521-6.684v-19.16h-2v19.16h2Zm-1-20.16h-6.399v2h6.399v-2Zm-5.399 1v-8.121h-2v8.121h2Zm-1-7.121h6.399v-2h-6.399v2Zm7.399-1V6.75h-2v10.125h2Zm-1-9.125h10.371v-2h-10.371v2Zm9.371-1v10.125h2V6.75h-2Zm1 11.125h7.594v-2h-7.594v2Zm17.457 34.543-.498.867.003.002.495-.869Zm-6.609-6.75-.88.475.005.009.875-.484Zm0-20.39-.877-.481-.003.005.88.475Zm6.609-6.786.499.867.002-.001-.501-.866Zm19.758 0-.504.864.009.005.495-.869Zm6.609 6.785-.879.476.003.005.876-.48Zm0 20.356-.876-.481-.003.005.879.476Zm-6.609 6.785-.495-.869-.004.002.499.867Zm-3.762-8.86.779.628.004-.005-.783-.622Zm-12.199 0-.783.623.004.005.779-.627Zm6.082 10.286c-3.602 0-6.72-.776-9.383-2.295l-.991 1.738c3.008 1.715 6.477 2.557 10.374 2.557v-2Zm-9.38-2.293c-2.652-1.525-4.726-3.641-6.233-6.367l-1.75.968c1.68 3.04 4.012 5.423 6.986 7.133l.997-1.734Zm-6.228-6.358c-1.479-2.737-2.236-5.966-2.236-9.72h-2c0 4.027.814 7.594 2.476 10.67l1.76-.95Zm-2.236-9.72c0-3.755.757-6.984 2.236-9.72l-1.76-.951c-1.662 3.076-2.476 6.644-2.476 10.67h2Zm2.233-9.715c1.507-2.749 3.581-4.875 6.231-6.399l-.997-1.734c-2.976 1.711-5.308 4.108-6.988 7.172l1.754.961Zm6.233-6.4c2.663-1.54 5.778-2.327 9.378-2.327v-2c-3.9 0-7.371.855-10.38 2.596l1.002 1.73Zm9.378-2.327c3.625 0 6.738.787 9.375 2.325l1.008-1.728c-2.988-1.743-6.461-2.597-10.383-2.597v2Zm9.384 2.33c2.671 1.523 4.742 3.648 6.225 6.392l1.759-.951c-1.658-3.069-3.993-5.468-6.994-7.178l-.99 1.737Zm6.228 6.397c1.499 2.735 2.267 5.963 2.267 9.715h2c0-4.03-.826-7.6-2.514-10.676l-1.753.961Zm2.267 9.715c0 3.727-.767 6.943-2.267 9.679l1.753.962c1.687-3.077 2.514-6.634 2.514-10.641h-2Zm-2.27 9.684c-1.483 2.744-3.554 4.869-6.225 6.392l.99 1.738c3.001-1.711 5.336-4.11 6.994-7.179l-1.759-.95Zm-6.229 6.394c-2.637 1.517-5.753 2.293-9.38 2.293v2c3.92 0 7.39-.841 10.377-2.56l-.997-1.733Zm-9.38-4.11c2.825 0 5.154-1.09 6.896-3.255l-1.558-1.254c-1.351 1.679-3.1 2.51-5.338 2.51v2Zm6.9-3.26c1.733-2.18 2.538-5.123 2.538-8.708h-2c0 3.305-.743 5.752-2.103 7.463l1.565 1.245Zm2.538-8.708c0-3.607-.804-6.563-2.538-8.744l-1.565 1.245c1.359 1.71 2.103 4.168 2.103 7.499h2Zm-2.538-8.744c-1.741-2.189-4.07-3.295-6.9-3.295v2c2.233 0 3.981.838 5.335 2.54l1.565-1.245Zm-6.9-3.295c-2.809 0-5.126 1.109-6.865 3.295l1.566 1.245c1.355-1.704 3.093-2.54 5.299-2.54v-2Zm-6.865 3.295c-1.734 2.18-2.537 5.137-2.537 8.744h2c0-3.331.743-5.79 2.103-7.499l-1.566-1.245Zm-2.537 8.744c0 3.585.804 6.528 2.537 8.708l1.566-1.245c-1.361-1.71-2.103-4.158-2.103-7.463h-2Zm2.541 8.713c1.74 2.162 4.056 3.255 6.861 3.255v-2c-2.211 0-3.95-.828-5.303-2.51l-1.558 1.255ZM392.635 54v1h1v-1h-1Zm-10.372 0h-1v1h1v-1Zm0-37.125v-1h-1v1h1Zm10.196 0h1v-1h-1v1Zm0 5.836h-1v3.61l1.857-3.096-.857-.514Zm21.058-2.777-.733.68.003.003.73-.683ZM417.068 54v1h1v-1h-1Zm-10.336 0h-1v1h1v-1Zm-1.793-27-.739.673.006.007.733-.68Zm-13.304 6.363V54h2V33.363h-2Zm1 19.637h-10.372v2h10.372v-2Zm-9.372 1V16.875h-2V54h2Zm-1-36.125h10.196v-2h-10.196v2Zm9.196-1v5.836h2v-5.836h-2Zm1.857 6.35c1.191-1.985 2.662-3.49 4.406-4.545l-1.035-1.711c-2.052 1.241-3.746 2.994-5.086 5.227l1.715 1.03Zm4.406-4.545c1.714-1.037 3.811-1.578 6.338-1.578v-2c-2.817 0-5.289.606-7.373 1.867l1.035 1.71Zm6.338-1.578c3.699 0 6.572 1.189 8.724 3.511l1.467-1.36c-2.582-2.786-6.015-4.151-10.191-4.151v2Zm8.727 3.515c2.14 2.288 3.281 5.62 3.281 10.145h2c0-4.85-1.226-8.738-3.82-11.511l-1.461 1.366Zm3.281 10.145V54h2V30.762h-2Zm1 22.238h-10.336v2h10.336v-2Zm-9.336 1V32.66h-2V54h2Zm0-21.34c0-2.632-.633-4.802-2.06-6.34l-1.466 1.36c.964 1.04 1.526 2.644 1.526 4.98h2Zm-2.053-6.333c-1.425-1.565-3.395-2.296-5.767-2.296v2c1.94 0 3.322.582 4.288 1.642l1.479-1.346Zm-5.767-2.296c-2.361 0-4.37.749-5.939 2.29l1.402 1.427c1.149-1.13 2.632-1.717 4.537-1.717v-2Zm-5.939 2.29c-1.63 1.602-2.338 4.027-2.338 7.042h2c0-2.75.65-4.544 1.74-5.615l-1.402-1.426Z" mask="url(#a)"/>
</svg>
